<svg xmlns="http://www.w3.org/2000/svg" viewBox="0 0 420 654" width="420" height="654" role="img" aria-labelledby="title"><title id="title">Instagram Reels cover crop</title><rect width="420" height="654" fill="#0D1117"/><g data-mark="constructed-lf" transform="translate(60 154.779) scale(0.422)"><path d="M8 8H20V44H28V56H8Z" fill="#F3F6FA"/><path d="M28 8H56V20H40V28H48V36H40V56H28Z" fill="#F3F6FA"/><rect x="48" y="28" width="8" height="8" fill="#4DA3FF"/></g><path d="M108.37 177L97.08 177L97.08 158.15L101.18 158.15L101.18 173.36L108.37 173.36Z" fill="#F3F6FA"/><path d="M116.14 177.32Q113.98 177.32 112.46 176.42Q110.93 175.52 110.13 173.84Q109.34 172.17 109.34 169.9Q109.34 167.66 110.11 166Q110.88 164.34 112.36 163.42Q113.85 162.5 115.98 162.5Q118.33 162.5 119.77 163.51Q121.22 164.53 121.89 166.17Q122.57 167.82 122.57 169.74L122.57 170.93L113.47 170.93L113.47 171.14Q113.47 172.55 114.24 173.37Q115.01 174.19 116.6 174.19Q117.87 174.19 118.64 173.68Q119.41 173.17 120.08 172.49L122.08 174.98Q121.14 176.06 119.61 176.69Q118.09 177.32 116.14 177.32ZM116.06 165.44Q115.25 165.44 114.67 165.81Q114.09 166.17 113.78 166.82Q113.47 167.47 113.47 168.36L113.47 168.58L118.44 168.58L118.44 168.33Q118.44 167.47 118.18 166.82Q117.92 166.17 117.4 165.81Q116.87 165.44 116.06 165.44Z" fill="#F3F6FA"/><path d="M130.21 177.32Q128.13 177.32 126.64 176.42Q125.16 175.52 124.36 173.84Q123.57 172.17 123.57 169.9Q123.57 167.6 124.36 165.96Q125.16 164.31 126.64 163.41Q128.13 162.5 130.21 162.5Q132.29 162.5 133.77 163.41Q135.26 164.31 136.05 165.96Q136.85 167.6 136.85 169.9Q136.85 172.17 136.05 173.84Q135.26 175.52 133.77 176.42Q132.29 177.32 130.21 177.32ZM130.21 174.17Q131.4 174.17 132.04 173.42Q132.69 172.68 132.69 171.36L132.69 168.47Q132.69 167.12 132.04 166.39Q131.4 165.66 130.21 165.66Q129.05 165.66 128.39 166.39Q127.72 167.12 127.72 168.47L127.72 171.36Q127.72 172.68 128.39 173.42Q129.05 174.17 130.21 174.17Z" fill="#F3F6FA"/><path d="M148.49 177L144.38 177L144.38 158.15L156.88 158.15L156.88 161.8L148.49 161.8L148.49 165.66L155.64 165.66L155.64 169.28L148.49 169.28Z" fill="#F3F6FA"/><path d="M164.93 177.32Q162.77 177.32 161.24 176.42Q159.72 175.52 158.92 173.84Q158.13 172.17 158.13 169.9Q158.13 167.66 158.9 166Q159.67 164.34 161.15 163.42Q162.64 162.5 164.77 162.5Q167.12 162.5 168.56 163.51Q170.01 164.53 170.68 166.17Q171.36 167.82 171.36 169.74L171.36 170.93L162.26 170.93L162.26 171.14Q162.26 172.55 163.03 173.37Q163.8 174.19 165.39 174.19Q166.66 174.19 167.43 173.68Q168.2 173.17 168.87 172.49L170.87 174.98Q169.93 176.06 168.4 176.69Q166.87 177.32 164.93 177.32ZM164.85 165.44Q164.04 165.44 163.46 165.81Q162.88 166.17 162.57 166.82Q162.26 167.47 162.26 168.36L162.26 168.58L167.23 168.58L167.23 168.33Q167.23 167.47 166.97 166.82Q166.71 166.17 166.19 165.81Q165.66 165.44 164.85 165.44Z" fill="#F3F6FA"/><path d="M177.24 177L173.25 177L173.25 162.82L177.24 162.82L177.24 165.9L177.38 165.9Q177.54 165.12 177.97 164.42Q178.4 163.72 179.15 163.27Q179.89 162.82 180.99 162.82L181.7 162.82L181.7 166.55L180.7 166.55Q179.54 166.55 178.77 166.75Q178 166.96 177.62 167.42Q177.24 167.87 177.24 168.71Z" fill="#F3F6FA"/><path d="M187.21 177L183.21 177L183.21 162.82L187.21 162.82L187.21 165.9L187.34 165.9Q187.5 165.12 187.93 164.42Q188.37 163.72 189.11 163.27Q189.85 162.82 190.96 162.82L191.66 162.82L191.66 166.55L190.66 166.55Q189.5 166.55 188.73 166.75Q187.96 166.96 187.58 167.42Q187.21 167.87 187.21 168.71Z" fill="#F3F6FA"/><path d="M205.86 177L203.65 177Q202.92 177 202.28 176.64Q201.65 176.27 201.27 175.56Q200.89 174.84 200.89 173.84L200.89 173.49L201.76 174.52L200.79 174.52Q200.46 175.89 199.36 176.61Q198.25 177.32 196.63 177.32Q194.5 177.32 193.36 176.18Q192.23 175.03 192.23 173.19Q192.23 171.68 192.97 170.71Q193.71 169.74 195.08 169.25Q196.44 168.77 198.3 168.77L200.54 168.77L200.54 167.87Q200.54 166.85 200 166.24Q199.46 165.63 198.19 165.63Q197.01 165.63 196.3 166.15Q195.6 166.66 195.14 167.31L192.77 165.2Q193.63 163.93 194.95 163.22Q196.28 162.5 198.49 162.5Q201.49 162.5 203.01 163.84Q204.54 165.17 204.54 167.69L204.54 173.9L205.86 173.9ZM200.54 171.03L198.6 171.03Q197.44 171.03 196.84 171.44Q196.25 171.84 196.25 172.63L196.25 173.03Q196.25 173.79 196.74 174.17Q197.22 174.54 198.11 174.54Q198.79 174.54 199.33 174.35Q199.87 174.17 200.21 173.76Q200.54 173.36 200.54 172.71Z" fill="#F3F6FA"/><path d="M218.66 177L206.78 177L206.78 173.84L213.83 165.93L207.02 165.93L207.02 162.82L218.47 162.82L218.47 165.96L211.4 173.9L218.66 173.9Z" fill="#F3F6FA"/><rect data-accent="underline-line" x="95" y="183" width="123.768" height="2" fill="#4DA3FF"/><rect data-accent="underline-terminal" x="210.768" y="183" width="8" height="2" fill="#86C5FF"/><text x="60" y="232" fill="#4DA3FF" font-family="IBM Plex Mono" font-size="14px" font-weight="500" text-anchor="start" letter-spacing="0.075em">INSTAGRAM REELS COVER CROP</text><text x="60" y="341" fill="#F3F6FA" font-family="IBM Plex Sans" font-size="30px" font-weight="500" text-anchor="start" letter-spacing="0em">AO VIVO</text><text x="60" y="401" fill="#B7C2CE" font-family="IBM Plex Mono" font-size="16px" font-weight="500" text-anchor="start" letter-spacing="0.01em">REAL PRODUCT ARTIFACT</text><text x="60" y="486" fill="#9B8CFF" font-family="IBM Plex Mono" font-size="14px" font-weight="500" text-anchor="start" letter-spacing="0.075em">AO VIVO</text><text x="360" y="563" fill="#B7C2CE" font-family="IBM Plex Mono" font-size="14px" font-weight="500" text-anchor="end" letter-spacing="0em">Building with AI</text></svg>