<svg xmlns="http://www.w3.org/2000/svg" viewBox="0 0 266 106" width="266" height="106" role="img" aria-labelledby="title"><title id="title">Leo Ferraz descriptor lockup</title><path d="M32.01 63.45L8.99 63.45L8.99 22.97L15.54 22.97L15.54 57.65L32.01 57.65Z" fill="#F3F6FA"/><path d="M48.14 64.15Q43.85 64.15 40.71 62.2Q37.58 60.26 35.87 56.72Q34.16 53.18 34.16 48.37Q34.16 43.56 35.84 40.05Q37.52 36.54 40.6 34.57Q43.67 32.59 47.96 32.59Q52.43 32.59 55.42 34.6Q58.4 36.6 59.91 40.02Q61.42 43.44 61.42 47.62L61.42 49.99L40.77 49.99L40.77 50.98Q40.77 54.46 42.83 56.69Q44.89 58.93 48.72 58.93Q51.5 58.93 53.42 57.71Q55.33 56.49 56.61 54.4L60.38 58.06Q58.64 60.78 55.48 62.46Q52.31 64.15 48.14 64.15ZM48.08 37.52Q45.88 37.52 44.22 38.54Q42.57 39.55 41.67 41.32Q40.77 43.09 40.77 45.41L40.77 45.82L54.81 45.82L54.81 45.24Q54.81 42.92 54 41.18Q53.18 39.44 51.68 38.48Q50.17 37.52 48.08 37.52Z" fill="#F3F6FA"/><path d="M78.18 64.15Q73.95 64.15 70.85 62.2Q67.74 60.26 66.03 56.72Q64.32 53.18 64.32 48.37Q64.32 43.56 66.03 40.02Q67.74 36.48 70.85 34.54Q73.95 32.59 78.18 32.59Q82.36 32.59 85.46 34.54Q88.56 36.48 90.28 40.02Q91.99 43.56 91.99 48.37Q91.99 53.18 90.28 56.72Q88.56 60.26 85.46 62.2Q82.36 64.15 78.18 64.15ZM78.18 58.87Q81.43 58.87 83.37 56.87Q85.32 54.87 85.32 50.92L85.32 45.82Q85.32 41.87 83.37 39.87Q81.43 37.87 78.18 37.87Q74.99 37.87 72.99 39.87Q70.99 41.87 70.99 45.82L70.99 50.92Q70.99 54.87 72.99 56.87Q74.99 58.87 78.18 58.87Z" fill="#F3F6FA"/><path d="M115.65 63.45L109.1 63.45L109.1 22.97L134.38 22.97L134.38 28.77L115.65 28.77L115.65 40.08L132.3 40.08L132.3 45.88L115.65 45.88Z" fill="#F3F6FA"/><path d="M151.55 64.15Q147.26 64.15 144.13 62.2Q141 60.26 139.29 56.72Q137.57 53.18 137.57 48.37Q137.57 43.56 139.26 40.05Q140.94 36.54 144.01 34.57Q147.09 32.59 151.38 32.59Q155.84 32.59 158.83 34.6Q161.82 36.6 163.33 40.02Q164.83 43.44 164.83 47.62L164.83 49.99L144.19 49.99L144.19 50.98Q144.19 54.46 146.25 56.69Q148.3 58.93 152.13 58.93Q154.92 58.93 156.83 57.71Q158.74 56.49 160.02 54.4L163.79 58.06Q162.05 60.78 158.89 62.46Q155.73 64.15 151.55 64.15ZM151.49 37.52Q149.29 37.52 147.64 38.54Q145.98 39.55 145.09 41.32Q144.19 43.09 144.19 45.41L144.19 45.82L158.22 45.82L158.22 45.24Q158.22 42.92 157.41 41.18Q156.6 39.44 155.09 38.48Q153.58 37.52 151.49 37.52Z" fill="#F3F6FA"/><path d="M176.14 63.45L169.82 63.45L169.82 33.29L176.14 33.29L176.14 39.26L176.43 39.26Q176.9 37.76 177.91 36.39Q178.93 35.03 180.61 34.16Q182.29 33.29 184.73 33.29L186.41 33.29L186.41 39.38L183.92 39.38Q181.42 39.38 179.68 39.96Q177.94 40.54 177.04 41.58Q176.14 42.63 176.14 44.19Z" fill="#F3F6FA"/><path d="M196.33 63.45L190.01 63.45L190.01 33.29L196.33 33.29L196.33 39.26L196.62 39.26Q197.08 37.76 198.1 36.39Q199.11 35.03 200.79 34.16Q202.48 33.29 204.91 33.29L206.59 33.29L206.59 39.38L204.1 39.38Q201.61 39.38 199.87 39.96Q198.13 40.54 197.23 41.58Q196.33 42.63 196.33 44.19Z" fill="#F3F6FA"/><path d="M235.83 63.45L232.29 63.45Q230.55 63.45 229.3 62.67Q228.05 61.88 227.42 60.43Q226.78 58.98 226.78 57.01L226.78 56.49L228.58 58.4L226.55 58.4Q225.68 61.19 223.36 62.67Q221.04 64.15 217.73 64.15Q213.09 64.15 210.54 61.71Q207.99 59.27 207.99 55.16Q207.99 52.14 209.47 50.14Q210.94 48.14 213.79 47.12Q216.63 46.11 220.86 46.11L226.31 46.11L226.31 43.56Q226.31 40.83 224.81 39.29Q223.3 37.76 220.11 37.76Q217.5 37.76 215.79 38.95Q214.08 40.13 212.92 41.87L209.15 38.45Q210.65 35.9 213.41 34.25Q216.16 32.59 220.51 32.59Q226.31 32.59 229.48 35.35Q232.64 38.1 232.64 43.15L232.64 58.29L235.83 58.29ZM226.31 50.17L220.98 50.17Q217.67 50.17 216.05 51.21Q214.42 52.26 214.42 54.23L214.42 55.27Q214.42 57.24 215.82 58.29Q217.21 59.33 219.53 59.33Q221.5 59.33 223.01 58.75Q224.52 58.17 225.42 57.07Q226.31 55.97 226.31 54.52Z" fill="#F3F6FA"/><path d="M261.64 63.45L237.57 63.45L237.57 58.35L253.75 38.45L238.09 38.45L238.09 33.29L261.23 33.29L261.23 38.16L244.82 58.29L261.64 58.29Z" fill="#F3F6FA"/><path d="M5.55 98.89L5.55 86.33L11.11 86.33Q12.66 86.33 13.56 87.21Q14.46 88.09 14.46 89.57Q14.46 90.5 14.13 91.07Q13.79 91.64 13.3 91.91Q12.8 92.18 12.28 92.23L12.28 92.34Q12.68 92.36 13.13 92.53Q13.58 92.7 13.98 93.04Q14.39 93.38 14.65 93.93Q14.91 94.48 14.91 95.27Q14.91 96.28 14.49 97.11Q14.06 97.94 13.33 98.41Q12.6 98.89 11.67 98.89ZM7.58 93.33L7.58 97.14L11.07 97.14Q11.6 97.14 11.97 96.96Q12.35 96.77 12.56 96.42Q12.77 96.06 12.77 95.54L12.77 94.93Q12.77 94.43 12.56 94.07Q12.35 93.71 11.97 93.52Q11.6 93.33 11.07 93.33ZM7.58 88.07L7.58 91.64L10.73 91.64Q11.24 91.64 11.59 91.47Q11.94 91.29 12.13 90.96Q12.32 90.63 12.32 90.14L12.32 89.57Q12.32 89.1 12.13 88.77Q11.94 88.43 11.59 88.25Q11.24 88.07 10.73 88.07Z" fill="#B7C2CE"/><path d="M22.94 98.89L22.94 97.34L22.85 97.34Q22.59 98.04 21.99 98.58Q21.39 99.11 20.22 99.11Q18.8 99.11 17.99 98.16Q17.18 97.22 17.18 95.49L17.18 89.53L19.14 89.53L19.14 95.24Q19.14 96.32 19.58 96.88Q20.02 97.45 20.92 97.45Q21.44 97.45 21.9 97.27Q22.36 97.09 22.65 96.73Q22.94 96.37 22.94 95.83L22.94 89.53L24.9 89.53L24.9 98.89Z" fill="#B7C2CE"/><path d="M28.7 87.86Q28.08 87.86 27.8 87.57Q27.53 87.28 27.53 86.83L27.53 86.52Q27.53 86.07 27.8 85.79Q28.08 85.5 28.7 85.5Q29.31 85.5 29.58 85.79Q29.85 86.07 29.85 86.52L29.85 86.83Q29.85 87.28 29.58 87.57Q29.31 87.86 28.7 87.86ZM27.71 98.89L27.71 89.53L29.67 89.53L29.67 98.89Z" fill="#B7C2CE"/><path d="M35.73 98.89L34.49 98.89Q33.48 98.89 32.98 98.36Q32.48 97.83 32.48 96.93L32.48 85.57L34.44 85.57L34.44 97.29L35.73 97.29Z" fill="#B7C2CE"/><path d="M43.49 98.89L43.49 97.34L43.4 97.34Q43.08 98.17 42.39 98.64Q41.71 99.11 40.77 99.11Q39.6 99.11 38.77 98.52Q37.93 97.94 37.49 96.84Q37.05 95.74 37.05 94.21Q37.05 92.66 37.49 91.57Q37.93 90.48 38.77 89.9Q39.6 89.31 40.77 89.31Q41.71 89.31 42.41 89.77Q43.11 90.23 43.4 91.08L43.49 91.08L43.49 85.57L45.45 85.57L45.45 98.89ZM41.37 97.45Q41.96 97.45 42.44 97.24Q42.92 97.04 43.2 96.67Q43.49 96.3 43.49 95.76L43.49 92.59Q43.49 92.1 43.2 91.74Q42.92 91.38 42.44 91.19Q41.96 90.99 41.37 90.99Q40.36 90.99 39.74 91.65Q39.12 92.32 39.12 93.4L39.12 95.02Q39.12 96.1 39.74 96.78Q40.36 97.45 41.37 97.45Z" fill="#B7C2CE"/><path d="M49.25 87.86Q48.64 87.86 48.36 87.57Q48.08 87.28 48.08 86.83L48.08 86.52Q48.08 86.07 48.36 85.79Q48.64 85.5 49.25 85.5Q49.86 85.5 50.13 85.79Q50.4 86.07 50.4 86.52L50.4 86.83Q50.4 87.28 50.13 87.57Q49.86 87.86 49.25 87.86ZM48.26 98.89L48.26 89.53L50.22 89.53L50.22 98.89Z" fill="#B7C2CE"/><path d="M54.99 98.89L53.03 98.89L53.03 89.53L54.99 89.53L54.99 91.08L55.08 91.08Q55.39 90.32 56.01 89.82Q56.63 89.31 57.71 89.31Q59.15 89.31 59.95 90.27Q60.75 91.22 60.75 92.95L60.75 98.89L58.79 98.89L58.79 93.18Q58.79 92.09 58.37 91.54Q57.95 90.99 57.03 90.99Q56.51 90.99 56.05 91.16Q55.59 91.33 55.29 91.69Q54.99 92.05 54.99 92.59Z" fill="#B7C2CE"/><path d="M71.7 99.77Q71.7 100.74 71.2 101.4Q70.71 102.06 69.66 102.38Q68.62 102.71 66.93 102.71Q65.42 102.71 64.47 102.44Q63.53 102.17 63.1 101.66Q62.68 101.16 62.68 100.46Q62.68 99.68 63.1 99.24Q63.53 98.8 64.28 98.66L64.28 98.46Q63.76 98.3 63.49 97.92Q63.22 97.54 63.22 97.02Q63.22 96.3 63.72 95.91Q64.21 95.52 64.89 95.36L64.89 95.29Q64.05 94.89 63.61 94.17Q63.17 93.45 63.17 92.52Q63.17 91.56 63.61 90.84Q64.05 90.12 64.88 89.72Q65.72 89.31 66.89 89.31Q67.38 89.31 67.8 89.39Q68.22 89.46 68.6 89.6L68.6 89.35Q68.6 88.72 68.91 88.38Q69.21 88.04 69.83 88.04L71.25 88.04L71.25 89.6L69.36 89.6L69.36 89.98Q69.99 90.41 70.32 91.06Q70.65 91.71 70.65 92.52Q70.65 93.45 70.21 94.17Q69.77 94.89 68.94 95.29Q68.1 95.69 66.91 95.69Q66.57 95.69 66.25 95.65Q65.94 95.61 65.69 95.54Q65.34 95.67 65.07 95.89Q64.8 96.12 64.8 96.48Q64.8 96.86 65.14 97.02Q65.47 97.18 66.1 97.18L68.4 97.18Q70.13 97.18 70.91 97.86Q71.7 98.55 71.7 99.77ZM69.86 99.99Q69.86 99.48 69.47 99.21Q69.09 98.93 68.13 98.93L64.97 98.93Q64.64 99.11 64.49 99.39Q64.34 99.66 64.34 100.01Q64.34 100.56 64.79 100.92Q65.24 101.28 66.33 101.28L67.56 101.28Q68.71 101.28 69.29 100.96Q69.86 100.64 69.86 99.99ZM66.91 94.28Q67.77 94.28 68.25 93.89Q68.73 93.49 68.73 92.7L68.73 92.32Q68.73 91.53 68.25 91.13Q67.77 90.74 66.91 90.74Q66.05 90.74 65.57 91.13Q65.09 91.53 65.09 92.32L65.09 92.7Q65.09 93.49 65.57 93.89Q66.05 94.28 66.91 94.28Z" fill="#B7C2CE"/><path d="M79.02 98.89L76.47 89.53L78.38 89.53L79.33 93.45L80.18 97.02L80.23 97.02L81.2 93.45L82.34 89.53L84.1 89.53L85.25 93.45L86.24 97.02L86.3 97.02L87.12 93.45L88.1 89.53L89.91 89.53L87.39 98.89L85.18 98.89L83.94 94.62L83.2 91.96L83.15 91.96L82.43 94.62L81.18 98.89Z" fill="#B7C2CE"/><path d="M92.78 87.86Q92.16 87.86 91.89 87.57Q91.61 87.28 91.61 86.83L91.61 86.52Q91.61 86.07 91.89 85.79Q92.16 85.5 92.78 85.5Q93.39 85.5 93.66 85.79Q93.93 86.07 93.93 86.52L93.93 86.83Q93.93 87.28 93.66 87.57Q93.39 87.86 92.78 87.86ZM91.79 98.89L91.79 89.53L93.75 89.53L93.75 98.89Z" fill="#B7C2CE"/><path d="M100.86 98.89L99.15 98.89Q98.14 98.89 97.61 98.34Q97.08 97.79 97.08 96.84L97.08 91.13L95.62 91.13L95.62 89.53L96.41 89.53Q96.9 89.53 97.09 89.31Q97.28 89.1 97.28 88.61L97.28 86.97L99.04 86.97L99.04 89.53L101 89.53L101 91.13L99.04 91.13L99.04 97.29L100.86 97.29Z" fill="#B7C2CE"/><path d="M103.13 98.89L103.13 85.57L105.09 85.57L105.09 91.08L105.18 91.08Q105.48 90.32 106.1 89.82Q106.73 89.31 107.81 89.31Q109.25 89.31 110.05 90.27Q110.85 91.22 110.85 92.95L110.85 98.89L108.89 98.89L108.89 93.18Q108.89 92.09 108.46 91.54Q108.04 90.99 107.12 90.99Q106.6 90.99 106.14 91.16Q105.68 91.33 105.39 91.69Q105.09 92.05 105.09 92.59L105.09 98.89Z" fill="#B7C2CE"/><path d="M127.89 98.89L125.77 98.89L124.67 95.49L119.97 95.49L118.86 98.89L116.81 98.89L121.09 86.33L123.63 86.33ZM124.17 93.74L122.93 90.02L122.35 88.2L122.26 88.2L121.68 90.02L120.44 93.74Z" fill="#B7C2CE"/><path d="M134.73 98.89L129.3 98.89L129.3 97.23L130.99 97.23L130.99 87.98L129.3 87.98L129.3 86.33L134.73 86.33L134.73 87.98L133.02 87.98L133.02 97.23L134.73 97.23Z" fill="#B7C2CE"/></svg>