<svg xmlns="http://www.w3.org/2000/svg" viewBox="0 0 480 96" width="480" height="96" role="img" aria-labelledby="title"><title id="title">Leo Ferraz live brand bug</title><g transform="translate(16 24)"><path d="M19.46 36.8L6.75 36.8L6.75 14.46L10.37 14.46L10.37 33.6L19.46 33.6Z" fill="#F3F6FA"/><path d="M28.35 37.18Q25.98 37.18 24.26 36.11Q22.53 35.04 21.58 33.09Q20.64 31.14 20.64 28.48Q20.64 25.82 21.57 23.89Q22.5 21.95 24.19 20.86Q25.89 19.78 28.26 19.78Q30.72 19.78 32.37 20.88Q34.02 21.98 34.85 23.87Q35.68 25.76 35.68 28.06L35.68 29.38L24.29 29.38L24.29 29.92Q24.29 31.84 25.42 33.07Q26.56 34.3 28.67 34.3Q30.21 34.3 31.26 33.63Q32.32 32.96 33.02 31.81L35.1 33.82Q34.14 35.33 32.4 36.26Q30.66 37.18 28.35 37.18ZM28.32 22.5Q27.1 22.5 26.19 23.06Q25.28 23.62 24.78 24.59Q24.29 25.57 24.29 26.85L24.29 27.07L32.03 27.07L32.03 26.75Q32.03 25.47 31.58 24.51Q31.14 23.55 30.3 23.02Q29.47 22.5 28.32 22.5Z" fill="#F3F6FA"/><path d="M44.93 37.18Q42.59 37.18 40.88 36.11Q39.17 35.04 38.22 33.09Q37.28 31.14 37.28 28.48Q37.28 25.82 38.22 23.87Q39.17 21.92 40.88 20.85Q42.59 19.78 44.93 19.78Q47.23 19.78 48.94 20.85Q50.66 21.92 51.6 23.87Q52.54 25.82 52.54 28.48Q52.54 31.14 51.6 33.09Q50.66 35.04 48.94 36.11Q47.23 37.18 44.93 37.18ZM44.93 34.27Q46.72 34.27 47.79 33.17Q48.86 32.06 48.86 29.89L48.86 27.07Q48.86 24.9 47.79 23.79Q46.72 22.69 44.93 22.69Q43.17 22.69 42.06 23.79Q40.96 24.9 40.96 27.07L40.96 29.89Q40.96 32.06 42.06 33.17Q43.17 34.27 44.93 34.27Z" fill="#F3F6FA"/><path d="M65.6 36.8L61.98 36.8L61.98 14.46L75.94 14.46L75.94 17.66L65.6 17.66L65.6 23.9L74.78 23.9L74.78 27.1L65.6 27.1Z" fill="#F3F6FA"/><path d="M85.41 37.18Q83.04 37.18 81.31 36.11Q79.58 35.04 78.64 33.09Q77.7 31.14 77.7 28.48Q77.7 25.82 78.62 23.89Q79.55 21.95 81.25 20.86Q82.94 19.78 85.31 19.78Q87.78 19.78 89.42 20.88Q91.07 21.98 91.9 23.87Q92.74 25.76 92.74 28.06L92.74 29.38L81.34 29.38L81.34 29.92Q81.34 31.84 82.48 33.07Q83.62 34.3 85.73 34.3Q87.26 34.3 88.32 33.63Q89.38 32.96 90.08 31.81L92.16 33.82Q91.2 35.33 89.46 36.26Q87.71 37.18 85.41 37.18ZM85.38 22.5Q84.16 22.5 83.25 23.06Q82.34 23.62 81.84 24.59Q81.34 25.57 81.34 26.85L81.34 27.07L89.09 27.07L89.09 26.75Q89.09 25.47 88.64 24.51Q88.19 23.55 87.36 23.02Q86.53 22.5 85.38 22.5Z" fill="#F3F6FA"/><path d="M98.98 36.8L95.49 36.8L95.49 20.16L98.98 20.16L98.98 23.46L99.14 23.46Q99.39 22.62 99.95 21.87Q100.51 21.12 101.44 20.64Q102.37 20.16 103.71 20.16L104.64 20.16L104.64 23.52L103.26 23.52Q101.89 23.52 100.93 23.84Q99.97 24.16 99.47 24.74Q98.98 25.31 98.98 26.18Z" fill="#F3F6FA"/><path d="M110.11 36.8L106.62 36.8L106.62 20.16L110.11 20.16L110.11 23.46L110.27 23.46Q110.53 22.62 111.09 21.87Q111.65 21.12 112.58 20.64Q113.5 20.16 114.85 20.16L115.78 20.16L115.78 23.52L114.4 23.52Q113.02 23.52 112.06 23.84Q111.1 24.16 110.61 24.74Q110.11 25.31 110.11 26.18Z" fill="#F3F6FA"/><path d="M131.9 36.8L129.95 36.8Q128.99 36.8 128.3 36.37Q127.62 35.94 127.26 35.14Q126.91 34.34 126.91 33.25L126.91 32.96L127.9 34.02L126.78 34.02Q126.3 35.55 125.02 36.37Q123.74 37.18 121.92 37.18Q119.36 37.18 117.95 35.84Q116.54 34.5 116.54 32.22Q116.54 30.56 117.36 29.46Q118.18 28.35 119.74 27.79Q121.31 27.23 123.65 27.23L126.66 27.23L126.66 25.82Q126.66 24.32 125.82 23.47Q124.99 22.62 123.23 22.62Q121.79 22.62 120.85 23.28Q119.9 23.94 119.26 24.9L117.18 23.01Q118.02 21.6 119.54 20.69Q121.06 19.78 123.46 19.78Q126.66 19.78 128.4 21.3Q130.14 22.82 130.14 25.6L130.14 33.95L131.9 33.95ZM126.66 29.47L123.71 29.47Q121.89 29.47 120.99 30.05Q120.1 30.62 120.1 31.71L120.1 32.29Q120.1 33.38 120.86 33.95Q121.63 34.53 122.91 34.53Q124 34.53 124.83 34.21Q125.66 33.89 126.16 33.28Q126.66 32.67 126.66 31.87Z" fill="#F3F6FA"/><path d="M146.14 36.8L132.86 36.8L132.86 33.98L141.79 23.01L133.15 23.01L133.15 20.16L145.92 20.16L145.92 22.85L136.86 33.95L146.14 33.95Z" fill="#F3F6FA"/></g></svg>