<svg xmlns="http://www.w3.org/2000/svg" viewBox="0 0 1920 1080" width="1920" height="1080" role="img" aria-labelledby="title"><title id="title">Cena ao vivo — 05 — Já volto</title><rect width="1920" height="1080" fill="#0D1117"/><defs><pattern id="construction-grid-1920x1080" width="108" height="108" patternUnits="userSpaceOnUse"><path d="M 108 0 L 0 0 0 108" fill="none" stroke="#405064" stroke-opacity="0.32" stroke-width="1"/></pattern></defs><rect width="1920" height="1080" fill="url(#construction-grid-1920x1080)"/><g data-signature-variant="wordmark-only" transform="translate(151.273 67.273) scale(1.273)"><path d="M60.71 91.45L36.47 91.45L36.47 50.97L45.28 50.97L45.28 83.62L60.71 83.62Z" fill="#F3F6FA"/><path d="M77.41 92.15Q72.77 92.15 69.5 90.2Q66.22 88.26 64.51 84.66Q62.8 81.07 62.8 76.2Q62.8 71.38 64.45 67.82Q66.1 64.25 69.29 62.28Q72.48 60.3 77.07 60.3Q82.11 60.3 85.22 62.48Q88.32 64.65 89.77 68.19Q91.22 71.73 91.22 75.85L91.22 78.4L71.67 78.4L71.67 78.86Q71.67 81.88 73.33 83.65Q74.98 85.42 78.4 85.42Q81.13 85.42 82.78 84.32Q84.43 83.21 85.88 81.76L90.17 87.1Q88.14 89.42 84.87 90.78Q81.59 92.15 77.41 92.15ZM77.24 66.63Q75.5 66.63 74.25 67.41Q73.01 68.19 72.34 69.58Q71.67 70.98 71.67 72.89L71.67 73.35L82.34 73.35L82.34 72.83Q82.34 70.98 81.79 69.58Q81.24 68.19 80.11 67.41Q78.98 66.63 77.24 66.63Z" fill="#F3F6FA"/><path d="M107.63 92.15Q103.17 92.15 99.98 90.2Q96.79 88.26 95.08 84.66Q93.36 81.07 93.36 76.2Q93.36 71.27 95.08 67.73Q96.79 64.19 99.98 62.25Q103.17 60.3 107.63 60.3Q112.1 60.3 115.29 62.25Q118.48 64.19 120.19 67.73Q121.9 71.27 121.9 76.2Q121.9 81.07 120.19 84.66Q118.48 88.26 115.29 90.2Q112.1 92.15 107.63 92.15ZM107.63 85.36Q110.18 85.36 111.58 83.77Q112.97 82.17 112.97 79.33L112.97 73.12Q112.97 70.22 111.58 68.66Q110.18 67.09 107.63 67.09Q105.14 67.09 103.72 68.66Q102.3 70.22 102.3 73.12L102.3 79.33Q102.3 82.17 103.72 83.77Q105.14 85.36 107.63 85.36Z" fill="#F3F6FA"/><path d="M146.9 91.45L138.08 91.45L138.08 50.97L164.94 50.97L164.94 58.8L146.9 58.8L146.9 67.09L162.27 67.09L162.27 74.86L146.9 74.86Z" fill="#F3F6FA"/><path d="M182.22 92.15Q177.58 92.15 174.3 90.2Q171.03 88.26 169.32 84.66Q167.6 81.07 167.6 76.2Q167.6 71.38 169.26 67.82Q170.91 64.25 174.1 62.28Q177.29 60.3 181.87 60.3Q186.92 60.3 190.02 62.48Q193.12 64.65 194.57 68.19Q196.02 71.73 196.02 75.85L196.02 78.4L176.48 78.4L176.48 78.86Q176.48 81.88 178.13 83.65Q179.78 85.42 183.21 85.42Q185.93 85.42 187.58 84.32Q189.24 83.21 190.69 81.76L194.98 87.1Q192.95 89.42 189.67 90.78Q186.4 92.15 182.22 92.15ZM182.05 66.63Q180.31 66.63 179.06 67.41Q177.81 68.19 177.15 69.58Q176.48 70.98 176.48 72.89L176.48 73.35L187.15 73.35L187.15 72.83Q187.15 70.98 186.6 69.58Q186.05 68.19 184.92 67.41Q183.79 66.63 182.05 66.63Z" fill="#F3F6FA"/><path d="M208.67 91.45L200.08 91.45L200.08 61L208.67 61L208.67 67.61L208.96 67.61Q209.31 65.93 210.23 64.42Q211.16 62.91 212.76 61.96Q214.35 61 216.73 61L218.24 61L218.24 69L216.09 69Q213.6 69 211.95 69.44Q210.29 69.87 209.48 70.86Q208.67 71.85 208.67 73.64Z" fill="#F3F6FA"/><path d="M230.07 91.45L221.49 91.45L221.49 61L230.07 61L230.07 67.61L230.36 67.61Q230.71 65.93 231.64 64.42Q232.56 62.91 234.16 61.96Q235.75 61 238.13 61L239.64 61L239.64 69L237.49 69Q235 69 233.35 69.44Q231.69 69.87 230.88 70.86Q230.07 71.85 230.07 73.64Z" fill="#F3F6FA"/><path d="M270.15 91.45L265.39 91.45Q263.83 91.45 262.46 90.67Q261.1 89.88 260.29 88.35Q259.48 86.81 259.48 84.66L259.48 83.91L261.33 86.11L259.24 86.11Q258.55 89.07 256.17 90.61Q253.79 92.15 250.31 92.15Q245.73 92.15 243.29 89.68Q240.86 87.22 240.86 83.27Q240.86 80.02 242.45 77.94Q244.05 75.85 246.98 74.8Q249.91 73.76 253.91 73.76L258.72 73.76L258.72 71.85Q258.72 69.64 257.56 68.34Q256.4 67.03 253.68 67.03Q251.12 67.03 249.62 68.13Q248.11 69.24 247.12 70.63L242.02 66.1Q243.87 63.38 246.72 61.84Q249.56 60.3 254.31 60.3Q260.75 60.3 264.03 63.18Q267.31 66.05 267.31 71.44L267.31 84.78L270.15 84.78ZM258.72 78.63L254.55 78.63Q252.05 78.63 250.78 79.5Q249.5 80.37 249.5 82.05L249.5 82.92Q249.5 84.55 250.54 85.36Q251.59 86.17 253.5 86.17Q254.95 86.17 256.11 85.77Q257.27 85.36 258 84.49Q258.72 83.62 258.72 82.23Z" fill="#F3F6FA"/><path d="M297.64 91.45L272.12 91.45L272.12 84.66L287.26 67.67L272.64 67.67L272.64 61L297.23 61L297.23 67.73L282.04 84.78L297.64 84.78Z" fill="#F3F6FA"/><rect data-accent="underline-line" x="32" y="99.45" width="265.872" height="2" fill="#4DA3FF"/><rect data-accent="underline-terminal" x="289.872" y="99.45" width="8" height="2" fill="#86C5FF"/></g><path d="M204.53 439.03L244.08 439.03L244.08 497.96Q244.08 505.04 241.07 510.31Q238.05 515.59 232.48 518.49Q226.92 521.39 219.49 521.39Q208.94 521.39 202.85 515.77Q196.76 510.14 195.13 501.09L207.2 498.54Q208.24 503.64 211.2 506.72Q214.16 509.79 219.49 509.79Q224.71 509.79 227.84 506.54Q230.98 503.3 230.98 496.57L230.98 449.94L204.53 449.94Z" fill="#F3F6FA"/><path d="M327.6 520L313.92 520L306.84 498.08L276.56 498.08L269.37 520L256.15 520L283.76 439.03L300.11 439.03ZM303.59 486.82L295.59 462.81L291.88 451.1L291.3 451.1L287.58 462.81L279.58 486.82ZM306.72 413.86L293.04 433.12L285.15 429.4L295.7 408.52Z" fill="#F3F6FA"/><path d="M401.26 520L386.07 520L359.5 439.03L373.19 439.03L385.95 479.05L393.84 507.24L394.3 507.24L402.19 479.05L415.07 439.03L428.18 439.03Z" fill="#F3F6FA"/><path d="M471.44 521.39Q460.89 521.39 453.06 516.58Q445.23 511.76 440.94 502.43Q436.64 493.09 436.64 479.52Q436.64 465.83 440.94 456.55Q445.23 447.27 453.06 442.45Q460.89 437.64 471.44 437.64Q482.12 437.64 489.95 442.45Q497.78 447.27 502.07 456.55Q506.36 465.83 506.36 479.52Q506.36 493.09 502.07 502.43Q497.78 511.76 489.95 516.58Q482.12 521.39 471.44 521.39ZM471.44 509.68Q477.82 509.68 482.46 506.78Q487.1 503.88 489.77 498.54Q492.44 493.2 492.44 485.9L492.44 473.14Q492.44 465.71 489.77 460.38Q487.1 455.04 482.46 452.2Q477.82 449.36 471.44 449.36Q465.3 449.36 460.54 452.2Q455.78 455.04 453.17 460.38Q450.56 465.71 450.56 473.14L450.56 485.9Q450.56 493.2 453.17 498.54Q455.78 503.88 460.54 506.78Q465.3 509.68 471.44 509.68Z" fill="#F3F6FA"/><path d="M568.77 520L522.72 520L522.72 439.03L535.82 439.03L535.82 508.4L568.77 508.4Z" fill="#F3F6FA"/><path d="M636.4 450.63L612.27 450.63L612.27 520L599.16 520L599.16 450.63L575.03 450.63L575.03 439.03L636.4 439.03Z" fill="#F3F6FA"/><path d="M680.36 521.39Q669.8 521.39 661.97 516.58Q654.14 511.76 649.85 502.43Q645.56 493.09 645.56 479.52Q645.56 465.83 649.85 456.55Q654.14 447.27 661.97 442.45Q669.8 437.64 680.36 437.64Q691.03 437.64 698.86 442.45Q706.69 447.27 710.98 456.55Q715.28 465.83 715.28 479.52Q715.28 493.09 710.98 502.43Q706.69 511.76 698.86 516.58Q691.03 521.39 680.36 521.39ZM680.36 509.68Q686.74 509.68 691.38 506.78Q696.02 503.88 698.69 498.54Q701.36 493.2 701.36 485.9L701.36 473.14Q701.36 465.71 698.69 460.38Q696.02 455.04 691.38 452.2Q686.74 449.36 680.36 449.36Q674.21 449.36 669.46 452.2Q664.7 455.04 662.09 460.38Q659.48 465.71 659.48 473.14L659.48 485.9Q659.48 493.2 662.09 498.54Q664.7 503.88 669.46 506.78Q674.21 509.68 680.36 509.68Z" fill="#F3F6FA"/><path d="M194.92 596L194.92 572.27L203.32 572.27Q206.35 572.27 208.61 573.58Q210.87 574.89 212.11 577.52Q213.35 580.16 213.35 584.13Q213.35 588.11 212.11 590.75Q210.87 593.38 208.61 594.69Q206.35 596 203.32 596ZM198.77 592.6L203.32 592.6Q205.09 592.6 206.43 591.85Q207.78 591.1 208.51 589.64Q209.24 588.18 209.24 586.04L209.24 582.23Q209.24 580.09 208.51 578.63Q207.78 577.16 206.43 576.42Q205.09 575.67 203.32 575.67L198.77 575.67Z" fill="#B7C2CE"/><path d="M224.74 596.41Q222.26 596.41 220.44 595.27Q218.62 594.13 217.62 592.06Q216.62 589.98 216.62 587.16Q216.62 584.34 217.62 582.26Q218.62 580.19 220.44 579.05Q222.26 577.91 224.74 577.91Q227.19 577.91 229.01 579.05Q230.83 580.19 231.83 582.26Q232.83 584.34 232.83 587.16Q232.83 589.98 231.83 592.06Q230.83 594.13 229.01 595.27Q227.19 596.41 224.74 596.41ZM224.74 593.31Q226.65 593.31 227.79 592.14Q228.92 590.97 228.92 588.66L228.92 585.66Q228.92 583.35 227.79 582.18Q226.65 581.01 224.74 581.01Q222.87 581.01 221.7 582.18Q220.53 583.35 220.53 585.66L220.53 588.66Q220.53 590.97 221.7 592.14Q222.87 593.31 224.74 593.31Z" fill="#B7C2CE"/><path d="M243.78 596.41Q239.94 596.41 237.83 593.91Q235.72 591.41 235.72 587.16Q235.72 582.91 237.83 580.41Q239.94 577.91 243.78 577.91Q246.43 577.91 248.13 579.1Q249.83 580.29 250.58 582.26L247.52 583.69Q247.15 582.47 246.2 581.74Q245.24 581.01 243.78 581.01Q241.74 581.01 240.69 582.28Q239.63 583.56 239.63 585.6L239.63 588.72Q239.63 590.76 240.69 592.06Q241.74 593.35 243.78 593.35Q245.38 593.35 246.37 592.55Q247.35 591.75 247.93 590.42L250.72 591.92Q249.87 594.1 248.1 595.25Q246.33 596.41 243.78 596.41Z" fill="#B7C2CE"/><path d="M264.96 596L264.96 593.08L264.79 593.08Q264.32 594.4 263.18 595.41Q262.04 596.41 259.83 596.41Q257.14 596.41 255.61 594.62Q254.08 592.84 254.08 589.57L254.08 578.32L257.79 578.32L257.79 589.1Q257.79 591.14 258.62 592.21Q259.46 593.28 261.16 593.28Q262.14 593.28 263.01 592.94Q263.88 592.6 264.42 591.92Q264.96 591.24 264.96 590.22L264.96 578.32L268.67 578.32L268.67 596Z" fill="#B7C2CE"/><path d="M277.68 596L273.97 596L273.97 578.32L277.68 578.32L277.68 581.24L277.85 581.24Q278.39 579.85 279.5 578.88Q280.6 577.91 282.61 577.91Q284.38 577.91 285.77 578.78Q287.17 579.65 287.81 581.52L287.91 581.52Q288.39 580.05 289.75 578.98Q291.11 577.91 293.29 577.91Q295.94 577.91 297.38 579.71Q298.83 581.52 298.83 584.78L298.83 596L295.12 596L295.12 585.22Q295.12 583.15 294.34 582.11Q293.56 581.07 291.89 581.07Q290.97 581.07 290.12 581.4Q289.27 581.72 288.76 582.4Q288.25 583.08 288.25 584.1L288.25 596L284.55 596L284.55 585.22Q284.55 583.15 283.77 582.11Q282.98 581.07 281.35 581.07Q280.43 581.07 279.58 581.4Q278.73 581.72 278.21 582.4Q277.68 583.08 277.68 584.1Z" fill="#B7C2CE"/><path d="M310.93 596.41Q308.42 596.41 306.58 595.27Q304.74 594.13 303.74 592.06Q302.74 589.98 302.74 587.16Q302.74 584.34 303.72 582.28Q304.71 580.22 306.51 579.07Q308.31 577.91 310.83 577.91Q313.45 577.91 315.2 579.09Q316.95 580.26 317.83 582.26Q318.72 584.27 318.72 586.72L318.72 588.11L306.61 588.11L306.61 588.69Q306.61 590.73 307.82 592.04Q309.03 593.35 311.27 593.35Q312.9 593.35 314.03 592.63Q315.15 591.92 315.9 590.7L318.11 592.84Q317.09 594.44 315.23 595.42Q313.38 596.41 310.93 596.41ZM310.9 580.8Q309.61 580.8 308.64 581.4Q307.67 581.99 307.14 583.03Q306.61 584.07 306.61 585.43L306.61 585.66L314.84 585.66L314.84 585.32Q314.84 583.96 314.37 582.94Q313.89 581.92 313.01 581.36Q312.12 580.8 310.9 580.8Z" fill="#B7C2CE"/><path d="M326.54 596L322.83 596L322.83 578.32L326.54 578.32L326.54 581.24L326.71 581.24Q327.29 579.82 328.46 578.86Q329.63 577.91 331.67 577.91Q334.39 577.91 335.91 579.71Q337.42 581.52 337.42 584.78L337.42 596L333.71 596L333.71 585.22Q333.71 583.15 332.91 582.11Q332.11 581.07 330.38 581.07Q329.39 581.07 328.53 581.4Q327.66 581.72 327.1 582.4Q326.54 583.08 326.54 584.1Z" fill="#B7C2CE"/><path d="M350.68 596L347.45 596Q345.54 596 344.54 594.96Q343.54 593.93 343.54 592.12L343.54 581.35L340.78 581.35L340.78 578.32L342.28 578.32Q343.2 578.32 343.56 577.91Q343.91 577.5 343.91 576.59L343.91 573.49L347.24 573.49L347.24 578.32L350.95 578.32L350.95 581.35L347.24 581.35L347.24 592.97L350.68 592.97Z" fill="#B7C2CE"/><path d="M369.99 596L367.92 596Q366.9 596 366.17 595.54Q365.43 595.08 365.06 594.23Q364.69 593.38 364.69 592.23L364.69 591.92L365.74 593.04L364.55 593.04Q364.04 594.67 362.68 595.54Q361.32 596.41 359.38 596.41Q356.66 596.41 355.17 594.98Q353.67 593.55 353.67 591.14Q353.67 589.37 354.54 588.2Q355.4 587.02 357.07 586.43Q358.74 585.83 361.22 585.83L364.41 585.83L364.41 584.34Q364.41 582.74 363.53 581.84Q362.65 580.94 360.78 580.94Q359.25 580.94 358.24 581.64Q357.24 582.33 356.56 583.35L354.35 581.35Q355.23 579.85 356.85 578.88Q358.46 577.91 361.01 577.91Q364.41 577.91 366.27 579.53Q368.12 581.14 368.12 584.1L368.12 592.97L369.99 592.97ZM364.41 588.21L361.29 588.21Q359.35 588.21 358.4 588.83Q357.44 589.44 357.44 590.59L357.44 591.21Q357.44 592.36 358.26 592.97Q359.08 593.59 360.44 593.59Q361.59 593.59 362.48 593.25Q363.36 592.91 363.89 592.26Q364.41 591.61 364.41 590.76Z" fill="#B7C2CE"/><path d="M377.33 596L373.63 596L373.63 578.32L377.33 578.32L377.33 581.24L377.5 581.24Q378.08 579.82 379.26 578.86Q380.43 577.91 382.47 577.91Q385.19 577.91 386.7 579.71Q388.21 581.52 388.21 584.78L388.21 596L384.51 596L384.51 585.22Q384.51 583.15 383.71 582.11Q382.91 581.07 381.18 581.07Q380.19 581.07 379.32 581.4Q378.46 581.72 377.9 582.4Q377.33 583.08 377.33 584.1Z" fill="#B7C2CE"/><path d="M404.47 596L404.47 593.08L404.3 593.08Q403.68 594.64 402.39 595.52Q401.1 596.41 399.33 596.41Q397.12 596.41 395.54 595.3Q393.96 594.2 393.13 592.12Q392.29 590.05 392.29 587.16Q392.29 584.24 393.13 582.18Q393.96 580.12 395.54 579.02Q397.12 577.91 399.33 577.91Q401.1 577.91 402.43 578.78Q403.75 579.65 404.3 581.24L404.47 581.24L404.47 570.84L408.17 570.84L408.17 596ZM400.45 593.28Q401.58 593.28 402.48 592.89Q403.38 592.5 403.92 591.8Q404.47 591.1 404.47 590.08L404.47 584.1Q404.47 583.18 403.92 582.5Q403.38 581.82 402.48 581.45Q401.58 581.07 400.45 581.07Q398.55 581.07 397.38 582.33Q396.2 583.59 396.2 585.63L396.2 588.69Q396.2 590.73 397.38 592.01Q398.55 593.28 400.45 593.28Z" fill="#B7C2CE"/><path d="M420.38 596.41Q417.9 596.41 416.08 595.27Q414.26 594.13 413.26 592.06Q412.25 589.98 412.25 587.16Q412.25 584.34 413.26 582.26Q414.26 580.19 416.08 579.05Q417.9 577.91 420.38 577.91Q422.83 577.91 424.65 579.05Q426.46 580.19 427.47 582.26Q428.47 584.34 428.47 587.16Q428.47 589.98 427.47 592.06Q426.46 594.13 424.65 595.27Q422.83 596.41 420.38 596.41ZM420.38 593.31Q422.28 593.31 423.42 592.14Q424.56 590.97 424.56 588.66L424.56 585.66Q424.56 583.35 423.42 582.18Q422.28 581.01 420.38 581.01Q418.51 581.01 417.34 582.18Q416.16 583.35 416.16 585.66L416.16 588.66Q416.16 590.97 417.34 592.14Q418.51 593.31 420.38 593.31Z" fill="#B7C2CE"/><path d="M455.64 596L453.56 596Q452.54 596 451.81 595.54Q451.08 595.08 450.71 594.23Q450.33 593.38 450.33 592.23L450.33 591.92L451.39 593.04L450.2 593.04Q449.69 594.67 448.33 595.54Q446.97 596.41 445.03 596.41Q442.31 596.41 440.81 594.98Q439.32 593.55 439.32 591.14Q439.32 589.37 440.18 588.2Q441.05 587.02 442.72 586.43Q444.38 585.83 446.86 585.83L450.06 585.83L450.06 584.34Q450.06 582.74 449.18 581.84Q448.29 580.94 446.42 580.94Q444.89 580.94 443.89 581.64Q442.89 582.33 442.21 583.35L440 581.35Q440.88 579.85 442.5 578.88Q444.11 577.91 446.66 577.91Q450.06 577.91 451.91 579.53Q453.77 581.14 453.77 584.1L453.77 592.97L455.64 592.97ZM450.06 588.21L446.93 588.21Q444.99 588.21 444.04 588.83Q443.09 589.44 443.09 590.59L443.09 591.21Q443.09 592.36 443.91 592.97Q444.72 593.59 446.08 593.59Q447.24 593.59 448.12 593.25Q449.01 592.91 449.53 592.26Q450.06 591.61 450.06 590.76Z" fill="#B7C2CE"/><path d="M467.3 599.77L467.3 578.32L471 578.32L471 598.38Q471 600.42 469.97 601.61Q468.93 602.8 466.69 602.8L464.54 602.8L464.54 599.77ZM469.17 575.16Q468.01 575.16 467.49 574.61Q466.96 574.07 466.96 573.22L466.96 572.64Q466.96 571.79 467.49 571.25Q468.01 570.7 469.17 570.7Q470.32 570.7 470.83 571.25Q471.34 571.79 471.34 572.64L471.34 573.22Q471.34 574.07 470.83 574.61Q470.32 575.16 469.17 575.16Z" fill="#B7C2CE"/><path d="M483.21 596.41Q480.73 596.41 478.91 595.27Q477.09 594.13 476.09 592.06Q475.08 589.98 475.08 587.16Q475.08 584.34 476.09 582.26Q477.09 580.19 478.91 579.05Q480.73 577.91 483.21 577.91Q485.66 577.91 487.48 579.05Q489.3 580.19 490.3 582.26Q491.3 584.34 491.3 587.16Q491.3 589.98 490.3 592.06Q489.3 594.13 487.48 595.27Q485.66 596.41 483.21 596.41ZM483.21 593.31Q485.11 593.31 486.25 592.14Q487.39 590.97 487.39 588.66L487.39 585.66Q487.39 583.35 486.25 582.18Q485.11 581.01 483.21 581.01Q481.34 581.01 480.17 582.18Q478.99 583.35 478.99 585.66L478.99 588.66Q478.99 590.97 480.17 592.14Q481.34 593.31 483.21 593.31Z" fill="#B7C2CE"/><path d="M499.12 596L495.42 596L495.42 578.32L499.12 578.32L499.12 581.82L499.29 581.82Q499.56 580.94 500.16 580.14Q500.75 579.34 501.74 578.83Q502.73 578.32 504.15 578.32L505.14 578.32L505.14 581.89L503.68 581.89Q502.22 581.89 501.2 582.23Q500.18 582.57 499.65 583.18Q499.12 583.79 499.12 584.71Z" fill="#B7C2CE"/><path d="M512.14 596L508.44 596L508.44 578.32L512.14 578.32L512.14 581.24L512.31 581.24Q512.89 579.82 514.07 578.86Q515.24 577.91 517.28 577.91Q520 577.91 521.51 579.71Q523.02 581.52 523.02 584.78L523.02 596L519.32 596L519.32 585.22Q519.32 583.15 518.52 582.11Q517.72 581.07 515.99 581.07Q515 581.07 514.13 581.4Q513.27 581.72 512.71 582.4Q512.14 583.08 512.14 584.1Z" fill="#B7C2CE"/><path d="M543.19 596L541.11 596Q540.09 596 539.36 595.54Q538.63 595.08 538.26 594.23Q537.88 593.38 537.88 592.23L537.88 591.92L538.94 593.04L537.75 593.04Q537.24 594.67 535.88 595.54Q534.52 596.41 532.58 596.41Q529.86 596.41 528.36 594.98Q526.87 593.55 526.87 591.14Q526.87 589.37 527.73 588.2Q528.6 587.02 530.27 586.43Q531.93 585.83 534.41 585.83L537.61 585.83L537.61 584.34Q537.61 582.74 536.73 581.84Q535.84 580.94 533.97 580.94Q532.44 580.94 531.44 581.64Q530.44 582.33 529.76 583.35L527.55 581.35Q528.43 579.85 530.05 578.88Q531.66 577.91 534.21 577.91Q537.61 577.91 539.46 579.53Q541.32 581.14 541.32 584.1L541.32 592.97L543.19 592.97ZM537.61 588.21L534.48 588.21Q532.54 588.21 531.59 588.83Q530.64 589.44 530.64 590.59L530.64 591.21Q530.64 592.36 531.46 592.97Q532.27 593.59 533.63 593.59Q534.79 593.59 535.67 593.25Q536.56 592.91 537.08 592.26Q537.61 591.61 537.61 590.76Z" fill="#B7C2CE"/><path d="M557.94 596L557.94 593.08L557.77 593.08Q557.16 594.64 555.87 595.52Q554.58 596.41 552.81 596.41Q550.6 596.41 549.02 595.3Q547.44 594.2 546.6 592.12Q545.77 590.05 545.77 587.16Q545.77 584.24 546.6 582.18Q547.44 580.12 549.02 579.02Q550.6 577.91 552.81 577.91Q554.58 577.91 555.9 578.78Q557.23 579.65 557.77 581.24L557.94 581.24L557.94 570.84L561.65 570.84L561.65 596ZM553.93 593.28Q555.05 593.28 555.95 592.89Q556.85 592.5 557.4 591.8Q557.94 591.1 557.94 590.08L557.94 584.1Q557.94 583.18 557.4 582.5Q556.85 581.82 555.95 581.45Q555.05 581.07 553.93 581.07Q552.03 581.07 550.85 582.33Q549.68 583.59 549.68 585.63L549.68 588.69Q549.68 590.73 550.85 592.01Q552.03 593.28 553.93 593.28Z" fill="#B7C2CE"/><path d="M581.98 596L579.91 596Q578.89 596 578.16 595.54Q577.42 595.08 577.05 594.23Q576.68 593.38 576.68 592.23L576.68 591.92L577.73 593.04L576.54 593.04Q576.03 594.67 574.67 595.54Q573.31 596.41 571.37 596.41Q568.65 596.41 567.16 594.98Q565.66 593.55 565.66 591.14Q565.66 589.37 566.53 588.2Q567.39 587.02 569.06 586.43Q570.73 585.83 573.21 585.83L576.4 585.83L576.4 584.34Q576.4 582.74 575.52 581.84Q574.64 580.94 572.77 580.94Q571.24 580.94 570.23 581.64Q569.23 582.33 568.55 583.35L566.34 581.35Q567.22 579.85 568.84 578.88Q570.45 577.91 573 577.91Q576.4 577.91 578.26 579.53Q580.11 581.14 580.11 584.1L580.11 592.97L581.98 592.97ZM576.4 588.21L573.28 588.21Q571.34 588.21 570.39 588.83Q569.43 589.44 569.43 590.59L569.43 591.21Q569.43 592.36 570.25 592.97Q571.07 593.59 572.43 593.59Q573.58 593.59 574.47 593.25Q575.35 592.91 575.88 592.26Q576.4 591.61 576.4 590.76Z" fill="#B7C2CE"/><path d="M587.86 596.41Q586.6 596.41 586.01 595.75Q585.41 595.08 585.41 594.1L585.41 593.55Q585.41 592.53 586.01 591.9Q586.6 591.27 587.86 591.27Q589.15 591.27 589.75 591.9Q590.34 592.53 590.34 593.55L590.34 594.1Q590.34 595.08 589.75 595.75Q589.15 596.41 587.86 596.41Z" fill="#B7C2CE"/><path d="M193.8 969.89L197.9 969.89L197.9 956.35L193.8 956.35L193.8 954.24L200.52 954.24L200.52 969.89L204.62 969.89L204.62 972L193.8 972Z" fill="#B7C2CE"/><path d="M213.86 972.29Q212.45 972.29 211.32 971.83Q210.19 971.38 209.42 970.54Q208.66 969.7 208.25 968.51Q207.84 967.32 207.84 965.83Q207.84 964.34 208.26 963.14Q208.68 961.94 209.44 961.09Q210.19 960.24 211.27 959.78Q212.35 959.33 213.67 959.33Q214.97 959.33 216.02 959.77Q217.08 960.22 217.82 961.03Q218.57 961.85 218.96 962.98Q219.36 964.1 219.36 965.47L219.36 966.46L210.48 966.46L210.48 966.86Q210.48 968.33 211.39 969.25Q212.3 970.18 213.91 970.18Q215.11 970.18 215.96 969.66Q216.82 969.14 217.34 968.28L218.98 969.72Q218.35 970.8 217.07 971.54Q215.78 972.29 213.86 972.29ZM213.67 961.32Q212.98 961.32 212.39 961.56Q211.8 961.8 211.38 962.24Q210.96 962.69 210.72 963.29Q210.48 963.89 210.48 964.61L210.48 964.78L216.7 964.78L216.7 964.54Q216.7 963.07 215.87 962.2Q215.04 961.32 213.67 961.32Z" fill="#B7C2CE"/><path d="M228 972.29Q226.63 972.29 225.54 971.83Q224.45 971.38 223.69 970.54Q222.94 969.7 222.53 968.5Q222.12 967.3 222.12 965.81Q222.12 964.32 222.53 963.12Q222.94 961.92 223.69 961.08Q224.45 960.24 225.54 959.78Q226.63 959.33 228 959.33Q229.37 959.33 230.46 959.78Q231.55 960.24 232.31 961.08Q233.06 961.92 233.47 963.12Q233.88 964.32 233.88 965.81Q233.88 967.3 233.47 968.5Q233.06 969.7 232.31 970.54Q231.55 971.38 230.46 971.83Q229.37 972.29 228 972.29ZM228 970.22Q229.44 970.22 230.29 969.35Q231.14 968.47 231.14 966.74L231.14 964.87Q231.14 963.14 230.29 962.27Q229.44 961.39 228 961.39Q226.56 961.39 225.71 962.27Q224.86 963.14 224.86 964.87L224.86 966.74Q224.86 968.47 225.71 969.35Q226.56 970.22 228 970.22Z" fill="#B7C2CE"/><path d="M237.07 969.89L241.03 969.89L241.03 961.73L236.83 961.73L236.83 959.62L241.03 959.62L241.03 957.38Q241.03 955.99 241.8 955.12Q242.57 954.24 244.2 954.24L248.38 954.24L248.38 956.35L243.65 956.35L243.65 959.62L248.38 959.62L248.38 961.73L243.65 961.73L243.65 969.89L247.82 969.89L247.82 972L237.07 972Z" fill="#B7C2CE"/><path d="M257.06 972.29Q255.65 972.29 254.52 971.83Q253.39 971.38 252.62 970.54Q251.86 969.7 251.45 968.51Q251.04 967.32 251.04 965.83Q251.04 964.34 251.46 963.14Q251.88 961.94 252.64 961.09Q253.39 960.24 254.47 959.78Q255.55 959.33 256.87 959.33Q258.17 959.33 259.22 959.77Q260.28 960.22 261.02 961.03Q261.77 961.85 262.16 962.98Q262.56 964.1 262.56 965.47L262.56 966.46L253.68 966.46L253.68 966.86Q253.68 968.33 254.59 969.25Q255.5 970.18 257.11 970.18Q258.31 970.18 259.16 969.66Q260.02 969.14 260.54 968.28L262.18 969.72Q261.55 970.8 260.27 971.54Q258.98 972.29 257.06 972.29ZM256.87 961.32Q256.18 961.32 255.59 961.56Q255 961.8 254.58 962.24Q254.16 962.69 253.92 963.29Q253.68 963.89 253.68 964.61L253.68 964.78L259.9 964.78L259.9 964.54Q259.9 963.07 259.07 962.2Q258.24 961.32 256.87 961.32Z" fill="#B7C2CE"/><path d="M265.82 969.89L269.11 969.89L269.11 961.73L265.82 961.73L265.82 959.62L271.73 959.62L271.73 962.9L271.87 962.9Q272.04 962.26 272.35 961.66Q272.66 961.06 273.14 960.61Q273.62 960.17 274.32 959.89Q275.02 959.62 275.95 959.62L277.44 959.62L277.44 962.11L274.99 962.11Q273.55 962.11 272.64 962.96Q271.73 963.82 271.73 965.26L271.73 969.89L276.22 969.89L276.22 972L265.82 972Z" fill="#B7C2CE"/><path d="M280.22 969.89L283.51 969.89L283.51 961.73L280.22 961.73L280.22 959.62L286.13 959.62L286.13 962.9L286.27 962.9Q286.44 962.26 286.75 961.66Q287.06 961.06 287.54 960.61Q288.02 960.17 288.72 959.89Q289.42 959.62 290.35 959.62L291.84 959.62L291.84 962.11L289.39 962.11Q287.95 962.11 287.04 962.96Q286.13 963.82 286.13 965.26L286.13 969.89L290.62 969.89L290.62 972L280.22 972Z" fill="#B7C2CE"/><path d="M304.61 972Q303.48 972 302.92 971.42Q302.35 970.85 302.23 969.91L302.11 969.91Q301.75 971.04 300.8 971.66Q299.86 972.29 298.39 972.29Q296.5 972.29 295.37 971.29Q294.24 970.3 294.24 968.54Q294.24 966.74 295.57 965.8Q296.9 964.85 299.66 964.85L302.04 964.85L302.04 963.89Q302.04 961.37 299.38 961.37Q298.18 961.37 297.43 961.84Q296.69 962.3 296.18 963.07L294.62 961.8Q295.15 960.79 296.4 960.06Q297.65 959.33 299.62 959.33Q301.97 959.33 303.31 960.46Q304.66 961.58 304.66 963.72L304.66 969.94L306.22 969.94L306.22 972ZM299.14 970.37Q300.41 970.37 301.22 969.79Q302.04 969.22 302.04 968.3L302.04 966.5L299.71 966.5Q296.88 966.5 296.88 968.21L296.88 968.69Q296.88 969.53 297.48 969.95Q298.08 970.37 299.14 970.37Z" fill="#B7C2CE"/><path d="M309.05 972L309.05 969.7L316.58 961.73L309.31 961.73L309.31 959.62L319.51 959.62L319.51 961.92L311.98 969.89L319.75 969.89L319.75 972Z" fill="#B7C2CE"/><path d="M328.8 972.24Q327.65 972.24 327.18 971.76Q326.71 971.28 326.71 970.58L326.71 969.96Q326.71 969.26 327.18 968.78Q327.65 968.3 328.8 968.3Q329.95 968.3 330.42 968.78Q330.89 969.26 330.89 969.96L330.89 970.58Q330.89 971.28 330.42 971.76Q329.95 972.24 328.8 972.24Z" fill="#B7C2CE"/><path d="M345.89 969.89L345.74 969.89Q345.19 971.02 344.28 971.65Q343.37 972.29 342 972.29Q339.82 972.29 338.52 970.66Q337.22 969.02 337.22 965.81Q337.22 962.59 338.52 960.96Q339.82 959.33 342 959.33Q343.37 959.33 344.28 959.96Q345.19 960.6 345.74 961.73L345.89 961.73L345.89 954.24L348.5 954.24L348.5 972L345.89 972ZM343.08 970.15Q343.66 970.15 344.16 970.01Q344.66 969.86 345.05 969.58Q345.43 969.29 345.66 968.87Q345.89 968.45 345.89 967.87L345.89 963.74Q345.89 963.17 345.66 962.75Q345.43 962.33 345.05 962.04Q344.66 961.75 344.16 961.61Q343.66 961.46 343.08 961.46Q341.59 961.46 340.79 962.38Q339.98 963.29 339.98 964.8L339.98 966.82Q339.98 968.33 340.79 969.24Q341.59 970.15 343.08 970.15Z" fill="#B7C2CE"/><path d="M357.86 972.29Q356.45 972.29 355.32 971.83Q354.19 971.38 353.42 970.54Q352.66 969.7 352.25 968.51Q351.84 967.32 351.84 965.83Q351.84 964.34 352.26 963.14Q352.68 961.94 353.44 961.09Q354.19 960.24 355.27 959.78Q356.35 959.33 357.67 959.33Q358.97 959.33 360.02 959.77Q361.08 960.22 361.82 961.03Q362.57 961.85 362.96 962.98Q363.36 964.1 363.36 965.47L363.36 966.46L354.48 966.46L354.48 966.86Q354.48 968.33 355.39 969.25Q356.3 970.18 357.91 970.18Q359.11 970.18 359.96 969.66Q360.82 969.14 361.34 968.28L362.98 969.72Q362.35 970.8 361.07 971.54Q359.78 972.29 357.86 972.29ZM357.67 961.32Q356.98 961.32 356.39 961.56Q355.8 961.8 355.38 962.24Q354.96 962.69 354.72 963.29Q354.48 963.89 354.48 964.61L354.48 964.78L360.7 964.78L360.7 964.54Q360.7 963.07 359.87 962.2Q359.04 961.32 357.67 961.32Z" fill="#B7C2CE"/><path d="M370.39 972L365.95 959.62L368.66 959.62L370.37 964.85L371.98 969.82L372.12 969.82L373.73 964.85L375.43 959.62L378.05 959.62L373.61 972Z" fill="#B7C2CE"/><path d="M1499.59 955.25L1505.38 955.25Q1507.66 955.25 1508.92 956.42Q1510.18 957.6 1510.18 959.64Q1510.18 961.1 1509.46 961.97Q1508.74 962.83 1507.51 963.19L1507.51 963.31Q1508.98 963.65 1509.86 964.6Q1510.75 965.54 1510.75 967.27Q1510.75 968.3 1510.42 969.17Q1510.08 970.03 1509.46 970.67Q1508.83 971.3 1507.96 971.65Q1507.08 972 1506.02 972L1499.59 972ZM1505.21 969.94Q1506.55 969.94 1507.27 969.38Q1507.99 968.83 1507.99 967.61L1507.99 966.74Q1507.99 965.52 1507.27 964.97Q1506.55 964.42 1505.21 964.42L1502.23 964.42L1502.23 969.94ZM1504.82 962.45Q1506.1 962.45 1506.76 961.96Q1507.42 961.46 1507.42 960.31L1507.42 959.45Q1507.42 958.3 1506.76 957.8Q1506.1 957.31 1504.82 957.31L1502.23 957.31L1502.23 962.45Z" fill="#B7C2CE"/><path d="M1521.77 969.89L1521.65 969.89Q1521.46 970.37 1521.16 970.81Q1520.86 971.26 1520.42 971.58Q1519.99 971.9 1519.42 972.1Q1518.84 972.29 1518.07 972.29Q1516.2 972.29 1515.05 971.06Q1513.9 969.84 1513.9 967.58L1513.9 959.62L1516.51 959.62L1516.51 967.2Q1516.51 970.15 1519.08 970.15Q1519.58 970.15 1520.06 970.02Q1520.54 969.89 1520.93 969.62Q1521.31 969.36 1521.54 968.96Q1521.77 968.57 1521.77 968.02L1521.77 959.62L1524.38 959.62L1524.38 972L1521.77 972Z" fill="#B7C2CE"/><path d="M1534.37 957.36Q1533.36 957.36 1532.96 956.95Q1532.57 956.54 1532.57 955.94L1532.57 955.44Q1532.57 954.84 1532.96 954.43Q1533.36 954.02 1534.34 954.02Q1535.35 954.02 1535.75 954.43Q1536.14 954.84 1536.14 955.44L1536.14 955.94Q1536.14 956.54 1535.75 956.95Q1535.35 957.36 1534.37 957.36ZM1528.82 969.89L1533.05 969.89L1533.05 961.73L1528.82 961.73L1528.82 959.62L1535.66 959.62L1535.66 969.89L1539.62 969.89L1539.62 972L1528.82 972Z" fill="#B7C2CE"/><path d="M1542.6 969.89L1546.7 969.89L1546.7 956.35L1542.6 956.35L1542.6 954.24L1549.32 954.24L1549.32 969.89L1553.42 969.89L1553.42 972L1542.6 972Z" fill="#B7C2CE"/><path d="M1565.09 969.89L1564.94 969.89Q1564.39 971.02 1563.48 971.65Q1562.57 972.29 1561.2 972.29Q1559.02 972.29 1557.72 970.66Q1556.42 969.02 1556.42 965.81Q1556.42 962.59 1557.72 960.96Q1559.02 959.33 1561.2 959.33Q1562.57 959.33 1563.48 959.96Q1564.39 960.6 1564.94 961.73L1565.09 961.73L1565.09 954.24L1567.7 954.24L1567.7 972L1565.09 972ZM1562.28 970.15Q1562.86 970.15 1563.36 970.01Q1563.86 969.86 1564.25 969.58Q1564.63 969.29 1564.86 968.87Q1565.09 968.45 1565.09 967.87L1565.09 963.74Q1565.09 963.17 1564.86 962.75Q1564.63 962.33 1564.25 962.04Q1563.86 961.75 1563.36 961.61Q1562.86 961.46 1562.28 961.46Q1560.79 961.46 1559.99 962.38Q1559.18 963.29 1559.18 964.8L1559.18 966.82Q1559.18 968.33 1559.99 969.24Q1560.79 970.15 1562.28 970.15Z" fill="#B7C2CE"/><path d="M1577.57 957.36Q1576.56 957.36 1576.16 956.95Q1575.77 956.54 1575.77 955.94L1575.77 955.44Q1575.77 954.84 1576.16 954.43Q1576.56 954.02 1577.54 954.02Q1578.55 954.02 1578.95 954.43Q1579.34 954.84 1579.34 955.44L1579.34 955.94Q1579.34 956.54 1578.95 956.95Q1578.55 957.36 1577.57 957.36ZM1572.02 969.89L1576.25 969.89L1576.25 961.73L1572.02 961.73L1572.02 959.62L1578.86 959.62L1578.86 969.89L1582.82 969.89L1582.82 972L1572.02 972Z" fill="#B7C2CE"/><path d="M1586.02 972L1586.02 959.62L1588.63 959.62L1588.63 961.73L1588.75 961.73Q1588.94 961.25 1589.24 960.8Q1589.54 960.36 1589.98 960.04Q1590.41 959.71 1590.98 959.52Q1591.56 959.33 1592.33 959.33Q1594.2 959.33 1595.35 960.55Q1596.5 961.78 1596.5 964.03L1596.5 972L1593.89 972L1593.89 964.42Q1593.89 961.46 1591.32 961.46Q1590.82 961.46 1590.34 961.6Q1589.86 961.73 1589.47 961.99Q1589.09 962.26 1588.86 962.66Q1588.63 963.07 1588.63 963.6L1588.63 972Z" fill="#B7C2CE"/><path d="M1612.08 973.34Q1612.08 975.26 1610.47 976.18Q1608.86 977.09 1605.58 977.09Q1603.97 977.09 1602.88 976.88Q1601.78 976.68 1601.1 976.3Q1600.42 975.91 1600.12 975.36Q1599.82 974.81 1599.82 974.11Q1599.82 973.1 1600.38 972.54Q1600.94 971.98 1601.98 971.71L1601.98 971.47Q1601.35 971.23 1600.98 970.8Q1600.61 970.37 1600.61 969.67Q1600.61 968.76 1601.23 968.29Q1601.86 967.82 1602.84 967.58L1602.84 967.46Q1601.71 966.94 1601.09 965.98Q1600.46 965.02 1600.46 963.67Q1600.46 962.69 1600.82 961.88Q1601.18 961.08 1601.84 960.52Q1602.5 959.95 1603.43 959.64Q1604.35 959.33 1605.5 959.33Q1606.8 959.33 1607.83 959.74L1607.83 959.33Q1607.83 958.61 1608.24 958.13Q1608.65 957.65 1609.49 957.65L1611.74 957.65L1611.74 959.71L1608.86 959.71L1608.86 960.29Q1609.68 960.84 1610.11 961.69Q1610.54 962.54 1610.54 963.67Q1610.54 964.66 1610.18 965.46Q1609.82 966.26 1609.16 966.83Q1608.5 967.39 1607.58 967.69Q1606.66 967.99 1605.5 967.99Q1604.69 967.99 1603.97 967.85Q1603.54 967.97 1603.1 968.26Q1602.67 968.54 1602.67 969.05Q1602.67 969.62 1603.22 969.77Q1603.78 969.91 1604.59 969.91L1607.38 969.91Q1609.87 969.91 1610.98 970.86Q1612.08 971.81 1612.08 973.34ZM1609.63 973.51Q1609.63 972.89 1609.13 972.52Q1608.62 972.14 1607.3 972.14L1603.01 972.14Q1602.1 972.58 1602.1 973.54Q1602.1 974.23 1602.68 974.74Q1603.27 975.24 1604.64 975.24L1606.58 975.24Q1608.07 975.24 1608.85 974.8Q1609.63 974.35 1609.63 973.51ZM1605.5 966.19Q1606.78 966.19 1607.38 965.59Q1607.98 964.99 1607.98 963.98L1607.98 963.34Q1607.98 962.33 1607.38 961.73Q1606.78 961.13 1605.5 961.13Q1604.23 961.13 1603.63 961.73Q1603.03 962.33 1603.03 963.34L1603.03 963.98Q1603.03 964.99 1603.63 965.59Q1604.23 966.19 1605.5 966.19Z" fill="#B7C2CE"/><path d="M1627.68 959.62L1629.91 959.62L1631.11 970.03L1631.33 970.03L1633.18 959.62L1635.72 959.62L1637.54 970.03L1637.76 970.03L1638.98 959.62L1641.12 959.62L1639.39 972L1636.18 972L1634.52 962.4L1634.3 962.4L1632.62 972L1629.41 972Z" fill="#B7C2CE"/><path d="M1649.57 957.36Q1648.56 957.36 1648.16 956.95Q1647.77 956.54 1647.77 955.94L1647.77 955.44Q1647.77 954.84 1648.16 954.43Q1648.56 954.02 1649.54 954.02Q1650.55 954.02 1650.95 954.43Q1651.34 954.84 1651.34 955.44L1651.34 955.94Q1651.34 956.54 1650.95 956.95Q1650.55 957.36 1649.57 957.36ZM1644.02 969.89L1648.25 969.89L1648.25 961.73L1644.02 961.73L1644.02 959.62L1650.86 959.62L1650.86 969.89L1654.82 969.89L1654.82 972L1644.02 972Z" fill="#B7C2CE"/><path d="M1663.94 972Q1662.31 972 1661.54 971.12Q1660.78 970.25 1660.78 968.86L1660.78 961.73L1656.96 961.73L1656.96 959.62L1659.67 959.62Q1660.37 959.62 1660.66 959.34Q1660.94 959.06 1660.94 958.34L1660.94 955.25L1663.39 955.25L1663.39 959.62L1668.67 959.62L1668.67 961.73L1663.39 961.73L1663.39 969.89L1668.67 969.89L1668.67 972Z" fill="#B7C2CE"/><path d="M1672.42 954.24L1675.03 954.24L1675.03 961.73L1675.15 961.73Q1675.34 961.25 1675.64 960.8Q1675.94 960.36 1676.38 960.04Q1676.81 959.71 1677.38 959.52Q1677.96 959.33 1678.73 959.33Q1680.6 959.33 1681.75 960.55Q1682.9 961.78 1682.9 964.03L1682.9 972L1680.29 972L1680.29 964.42Q1680.29 961.46 1677.72 961.46Q1677.22 961.46 1676.74 961.6Q1676.26 961.73 1675.87 961.99Q1675.49 962.26 1675.26 962.66Q1675.03 963.07 1675.03 963.6L1675.03 972L1672.42 972Z" fill="#B7C2CE"/><path d="M1710.29 972L1709.02 967.54L1703.69 967.54L1702.42 972L1699.68 972L1704.58 955.25L1708.25 955.25L1713.14 972ZM1706.45 957.96L1706.26 957.96L1704.19 965.3L1708.51 965.3Z" fill="#B7C2CE"/><path d="M1715.52 972L1715.52 969.96L1719.46 969.96L1719.46 957.29L1715.52 957.29L1715.52 955.25L1726.08 955.25L1726.08 957.29L1722.14 957.29L1722.14 969.96L1726.08 969.96L1726.08 972Z" fill="#B7C2CE"/></svg>