<svg xmlns="http://www.w3.org/2000/svg" viewBox="0 0 560 80" width="560" height="80" role="img" aria-labelledby="title"><title id="title">Rodapé com link</title><rect x="16" y="20" width="4" height="40" fill="#4DA3FF"/><path d="M42.25 49.36L47.38 49.36L47.38 32.44L42.25 32.44L42.25 29.8L50.65 29.8L50.65 49.36L55.78 49.36L55.78 52L42.25 52Z" fill="#F3F6FA"/><path d="M67.33 52.36Q65.56 52.36 64.15 51.79Q62.74 51.22 61.78 50.17Q60.82 49.12 60.31 47.64Q59.8 46.15 59.8 44.29Q59.8 42.43 60.33 40.93Q60.85 39.43 61.8 38.37Q62.74 37.3 64.09 36.73Q65.44 36.16 67.09 36.16Q68.71 36.16 70.03 36.72Q71.35 37.27 72.28 38.29Q73.21 39.31 73.71 40.72Q74.2 42.13 74.2 43.84L74.2 45.07L63.1 45.07L63.1 45.58Q63.1 47.41 64.24 48.57Q65.38 49.72 67.39 49.72Q68.89 49.72 69.96 49.08Q71.02 48.43 71.68 47.35L73.72 49.15Q72.94 50.5 71.33 51.43Q69.73 52.36 67.33 52.36ZM67.09 38.65Q66.22 38.65 65.49 38.95Q64.75 39.25 64.22 39.81Q63.7 40.36 63.4 41.11Q63.1 41.86 63.1 42.76L63.1 42.97L70.87 42.97L70.87 42.67Q70.87 40.84 69.83 39.75Q68.8 38.65 67.09 38.65Z" fill="#F3F6FA"/><path d="M85 52.36Q83.29 52.36 81.93 51.79Q80.56 51.22 79.61 50.17Q78.67 49.12 78.16 47.62Q77.65 46.12 77.65 44.26Q77.65 42.4 78.16 40.9Q78.67 39.4 79.61 38.35Q80.56 37.3 81.93 36.73Q83.29 36.16 85 36.16Q86.71 36.16 88.08 36.73Q89.44 37.3 90.39 38.35Q91.33 39.4 91.84 40.9Q92.35 42.4 92.35 44.26Q92.35 46.12 91.84 47.62Q91.33 49.12 90.39 50.17Q89.44 51.22 88.08 51.79Q86.71 52.36 85 52.36ZM85 49.78Q86.8 49.78 87.87 48.69Q88.93 47.59 88.93 45.43L88.93 43.09Q88.93 40.93 87.87 39.84Q86.8 38.74 85 38.74Q83.2 38.74 82.14 39.84Q81.07 40.93 81.07 43.09L81.07 45.43Q81.07 47.59 82.14 48.69Q83.2 49.78 85 49.78Z" fill="#F3F6FA"/><path d="M96.34 49.36L101.29 49.36L101.29 39.16L96.04 39.16L96.04 36.52L101.29 36.52L101.29 33.73Q101.29 31.99 102.25 30.9Q103.21 29.8 105.25 29.8L110.47 29.8L110.47 32.44L104.56 32.44L104.56 36.52L110.47 36.52L110.47 39.16L104.56 39.16L104.56 49.36L109.78 49.36L109.78 52L96.34 52Z" fill="#F3F6FA"/><path d="M121.33 52.36Q119.56 52.36 118.15 51.79Q116.74 51.22 115.78 50.17Q114.82 49.12 114.31 47.64Q113.8 46.15 113.8 44.29Q113.8 42.43 114.33 40.93Q114.85 39.43 115.8 38.37Q116.74 37.3 118.09 36.73Q119.44 36.16 121.09 36.16Q122.71 36.16 124.03 36.72Q125.35 37.27 126.28 38.29Q127.21 39.31 127.71 40.72Q128.2 42.13 128.2 43.84L128.2 45.07L117.1 45.07L117.1 45.58Q117.1 47.41 118.24 48.57Q119.38 49.72 121.39 49.72Q122.89 49.72 123.96 49.08Q125.02 48.43 125.68 47.35L127.72 49.15Q126.94 50.5 125.34 51.43Q123.73 52.36 121.33 52.36ZM121.09 38.65Q120.22 38.65 119.49 38.95Q118.75 39.25 118.23 39.81Q117.7 40.36 117.4 41.11Q117.1 41.86 117.1 42.76L117.1 42.97L124.87 42.97L124.87 42.67Q124.87 40.84 123.84 39.75Q122.8 38.65 121.09 38.65Z" fill="#F3F6FA"/><path d="M132.28 49.36L136.39 49.36L136.39 39.16L132.28 39.16L132.28 36.52L139.66 36.52L139.66 40.63L139.84 40.63Q140.05 39.82 140.44 39.07Q140.83 38.32 141.43 37.77Q142.03 37.21 142.9 36.87Q143.77 36.52 144.94 36.52L146.8 36.52L146.8 39.64L143.74 39.64Q141.94 39.64 140.8 40.71Q139.66 41.77 139.66 43.57L139.66 49.36L145.27 49.36L145.27 52L132.28 52Z" fill="#F3F6FA"/><path d="M150.28 49.36L154.39 49.36L154.39 39.16L150.28 39.16L150.28 36.52L157.66 36.52L157.66 40.63L157.84 40.63Q158.05 39.82 158.44 39.07Q158.83 38.32 159.43 37.77Q160.03 37.21 160.9 36.87Q161.77 36.52 162.94 36.52L164.8 36.52L164.8 39.64L161.74 39.64Q159.94 39.64 158.8 40.71Q157.66 41.77 157.66 43.57L157.66 49.36L163.27 49.36L163.27 52L150.28 52Z" fill="#F3F6FA"/><path d="M180.76 52Q179.35 52 178.65 51.28Q177.94 50.56 177.79 49.39L177.64 49.39Q177.19 50.8 176.01 51.58Q174.82 52.36 172.99 52.36Q170.62 52.36 169.21 51.12Q167.8 49.87 167.8 47.68Q167.8 45.43 169.47 44.25Q171.13 43.06 174.58 43.06L177.55 43.06L177.55 41.86Q177.55 38.71 174.22 38.71Q172.72 38.71 171.79 39.3Q170.86 39.88 170.23 40.84L168.28 39.25Q168.94 37.99 170.5 37.08Q172.06 36.16 174.52 36.16Q177.46 36.16 179.14 37.57Q180.82 38.98 180.82 41.65L180.82 49.42L182.77 49.42L182.77 52ZM173.92 49.96Q175.51 49.96 176.53 49.24Q177.55 48.52 177.55 47.38L177.55 45.13L174.64 45.13Q171.1 45.13 171.1 47.26L171.1 47.86Q171.1 48.91 171.85 49.44Q172.6 49.96 173.92 49.96Z" fill="#F3F6FA"/><path d="M186.31 52L186.31 49.12L195.73 39.16L186.64 39.16L186.64 36.52L199.39 36.52L199.39 39.4L189.97 49.36L199.69 49.36L199.69 52Z" fill="#F3F6FA"/><path d="M211 52.3Q209.56 52.3 208.98 51.7Q208.39 51.1 208.39 50.23L208.39 49.45Q208.39 48.58 208.98 47.98Q209.56 47.38 211 47.38Q212.44 47.38 213.03 47.98Q213.61 48.58 213.61 49.45L213.61 50.23Q213.61 51.1 213.03 51.7Q212.44 52.3 211 52.3Z" fill="#F3F6FA"/><path d="M232.36 49.36L232.18 49.36Q231.49 50.77 230.35 51.57Q229.21 52.36 227.5 52.36Q224.77 52.36 223.15 50.32Q221.53 48.28 221.53 44.26Q221.53 40.24 223.15 38.2Q224.77 36.16 227.5 36.16Q229.21 36.16 230.35 36.96Q231.49 37.75 232.18 39.16L232.36 39.16L232.36 29.8L235.63 29.8L235.63 52L232.36 52ZM228.85 49.69Q229.57 49.69 230.2 49.51Q230.83 49.33 231.31 48.97Q231.79 48.61 232.08 48.09Q232.36 47.56 232.36 46.84L232.36 41.68Q232.36 40.96 232.08 40.44Q231.79 39.91 231.31 39.55Q230.83 39.19 230.2 39.01Q229.57 38.83 228.85 38.83Q226.99 38.83 225.99 39.97Q224.98 41.11 224.98 43L224.98 45.52Q224.98 47.41 225.99 48.55Q226.99 49.69 228.85 49.69Z" fill="#F3F6FA"/><path d="M247.33 52.36Q245.56 52.36 244.15 51.79Q242.74 51.22 241.78 50.17Q240.82 49.12 240.31 47.64Q239.8 46.15 239.8 44.29Q239.8 42.43 240.33 40.93Q240.85 39.43 241.8 38.37Q242.74 37.3 244.09 36.73Q245.44 36.16 247.09 36.16Q248.71 36.16 250.03 36.72Q251.35 37.27 252.28 38.29Q253.21 39.31 253.71 40.72Q254.2 42.13 254.2 43.84L254.2 45.07L243.1 45.07L243.1 45.58Q243.1 47.41 244.24 48.57Q245.38 49.72 247.39 49.72Q248.89 49.72 249.96 49.08Q251.02 48.43 251.68 47.35L253.72 49.15Q252.94 50.5 251.34 51.43Q249.73 52.36 247.33 52.36ZM247.09 38.65Q246.22 38.65 245.49 38.95Q244.75 39.25 244.23 39.81Q243.7 40.36 243.4 41.11Q243.1 41.86 243.1 42.76L243.1 42.97L250.87 42.97L250.87 42.67Q250.87 40.84 249.84 39.75Q248.8 38.65 247.09 38.65Z" fill="#F3F6FA"/><path d="M262.99 52L257.44 36.52L260.83 36.52L262.96 43.06L264.97 49.27L265.15 49.27L267.16 43.06L269.29 36.52L272.56 36.52L267.01 52Z" fill="#F3F6FA"/></svg>